***********************************************************************************
                       Angels & Demons =Decoded= [2009]
Uncloaking many of the historical facts of a monumental time in world history, ANGELS & DEMONS DECODED examines religious conspiracies, secret ΓÇ£codesΓÇ¥ hidden in Roman architecture and artwork, and controversial theories that pit science against faith ΓÇö with life or death consequences. Renowned symbologists, art historians, religious scholars, scientists and other experts help unravel the mysteries and expose any diabolical plots to destroy the Church.
***********************************************************************************
Format                                   : Matroska
Format version                           : Version 2
File size                                : 1.10 GiB
Duration                                 : 1h 33mn
Overall bit rate                         : 1 683 Kbps

Video
Format                                   : AVC
Format/Info                              : Advanced Video Codec
Format profile                           : High@L3.0
Duration                                 : 1h 33mn
Bit rate                                 : 1 458 Kbps
Width                                    : 720 pixels
Height                                   : 480 pixels
Display aspect ratio                     : 16:9
Original display aspect ratio            : 16:9
Frame rate mode                          : Variable
Frame rate                               : 29.970 fps
Standard                                 : NTSC
Stream size                              : 972 MiB (87%)
Writing library                          : x264 core 120
Language                                 : English
Default                                  : Yes
Forced                                   : No

Audio
Format                                   : AC-3
Format/Info                              : Audio Coding 3
Duration                                 : 1h 33mn
Bit rate mode                            : Constant
Bit rate                                 : 192 Kbps
Channel(s)                               : 2 channels
Sampling rate                            : 48.0 KHz
Stream size                              : 128 MiB (11%)
Language                                 : English
Default                                  : Yes
Forced                                   : No

***********************************************************************************
Movie MD5:  240E8AB19FCC2F5023824D0AB6E6257D
----------------------------------------------------------------------------
MD5 Checker for Linux:  http://sinf.gr/en/hashcalc.html
MD5 Checker for Windows:  http://getmd5checker.com/ 
----------------------------------------------------------------------------
 This was personally encoded by me, Carjacker, from the original History Channel DVD.
Leave your thoughts/opinions and ratings on the A/V of this film for others to see. Thanks! 
Pease SEED as you DL so others may also enjoy the movie! 
**Requests are welcome!		